<svg xmlns="http://www.w3.org/2000/svg" width="172.788" height="24.795" viewBox="0 0 172.788 24.795">
  <path id="DIGSMILE" d="M2.38-23.8H13.634a15.731,15.731,0,0,1,6.936,1.465,11.018,11.018,0,0,1,4.692,4.155,11.723,11.723,0,0,1,1.666,6.3,11.723,11.723,0,0,1-1.666,6.3A11.018,11.018,0,0,1,20.57-1.423,15.731,15.731,0,0,1,13.634.042H2.38ZM13.362-5.34a6.893,6.893,0,0,0,4.913-1.737,6.262,6.262,0,0,0,1.853-4.8,6.262,6.262,0,0,0-1.853-4.8,6.893,6.893,0,0,0-4.913-1.737H9.112V-5.34ZM30.634-23.8h6.732V.042H30.634ZM58.276-12.39h5.95v9.877A15.5,15.5,0,0,1,59.534-.265a18.642,18.642,0,0,1-5.3.783A14.166,14.166,0,0,1,47.5-1.065a11.8,11.8,0,0,1-4.692-4.411,12.18,12.18,0,0,1-1.7-6.4,12.18,12.18,0,0,1,1.7-6.4,11.747,11.747,0,0,1,4.726-4.411,14.514,14.514,0,0,1,6.834-1.584,15.2,15.2,0,0,1,5.984,1.124,11.536,11.536,0,0,1,4.42,3.236l-4.284,3.883a7.546,7.546,0,0,0-5.78-2.657,6.693,6.693,0,0,0-4.93,1.856,6.67,6.67,0,0,0-1.87,4.955,7.208,7.208,0,0,0,.85,3.525,6.1,6.1,0,0,0,2.38,2.418,6.969,6.969,0,0,0,3.5.868,8.588,8.588,0,0,0,3.638-.783ZM77.044.519A21.967,21.967,0,0,1,71.434-.2,13.786,13.786,0,0,1,67.014-2.1l2.21-4.973a14.289,14.289,0,0,0,3.706,1.7,14.086,14.086,0,0,0,4.148.647q3.876,0,3.876-1.941a1.607,1.607,0,0,0-1.105-1.516A20.3,20.3,0,0,0,76.3-9.222a33.866,33.866,0,0,1-4.488-1.243,7.554,7.554,0,0,1-3.094-2.129,5.758,5.758,0,0,1-1.292-3.951,6.848,6.848,0,0,1,1.19-3.934,7.965,7.965,0,0,1,3.553-2.776,14.6,14.6,0,0,1,5.8-1.022,20.415,20.415,0,0,1,4.624.528A14.146,14.146,0,0,1,86.6-22.2l-2.074,5.007a13.837,13.837,0,0,0-6.6-1.839,5.522,5.522,0,0,0-2.924.6,1.787,1.787,0,0,0-.918,1.55,1.536,1.536,0,0,0,1.088,1.43,19.646,19.646,0,0,0,3.5.988,32.762,32.762,0,0,1,4.5,1.243,7.779,7.779,0,0,1,3.094,2.112,5.646,5.646,0,0,1,1.309,3.934A6.714,6.714,0,0,1,86.394-3.3,8.114,8.114,0,0,1,82.824-.52,14.418,14.418,0,0,1,77.044.519ZM112.336.042l-.068-12.636-6.12,10.286h-2.992L97.07-12.253V.042H90.848V-23.8H96.39l8.364,13.76,8.16-13.76h5.542L118.524.042ZM123.454-23.8h6.732V.042h-6.732Zm11.7,0h6.732V-5.305h11.356V.042H135.15Zm40.018,18.63V.042H156.06V-23.8h18.666v5.211h-12v4.019H173.3v5.041H162.724v4.359Z" transform="translate(-2.38 24.276)" fill="#fff"/>
</svg>
