<svg xmlns="http://www.w3.org/2000/svg" width="46.068" height="16.016" viewBox="0 0 46.068 16.016">
  <path id="INC." d="M1.54-15.4H5.9V0H1.54Zm22.22,0V0H20.174l-6.8-8.206V0H9.108V-15.4h3.586l6.8,8.206V-15.4ZM34.628.308A9.114,9.114,0,0,1,30.283-.715a7.65,7.65,0,0,1-3.025-2.849,7.858,7.858,0,0,1-1.1-4.136,7.858,7.858,0,0,1,1.1-4.136,7.65,7.65,0,0,1,3.025-2.849,9.114,9.114,0,0,1,4.345-1.023,9.326,9.326,0,0,1,3.806.748A7.323,7.323,0,0,1,41.25-12.8L38.478-10.3a4.56,4.56,0,0,0-3.63-1.8,4.48,4.48,0,0,0-2.233.55A3.817,3.817,0,0,0,31.1-10a4.773,4.773,0,0,0-.539,2.3A4.773,4.773,0,0,0,31.1-5.4,3.817,3.817,0,0,0,32.615-3.85a4.48,4.48,0,0,0,2.233.55,4.56,4.56,0,0,0,3.63-1.8L41.25-2.6A7.323,7.323,0,0,1,38.434-.44,9.326,9.326,0,0,1,34.628.308ZM45.1.2a2.462,2.462,0,0,1-1.782-.7,2.377,2.377,0,0,1-.726-1.782,2.35,2.35,0,0,1,.715-1.782A2.5,2.5,0,0,1,45.1-4.752a2.485,2.485,0,0,1,1.8.682,2.369,2.369,0,0,1,.7,1.782,2.4,2.4,0,0,1-.715,1.782A2.452,2.452,0,0,1,45.1.2Z" transform="translate(-1.54 15.708)" fill="#fff"/>
</svg>
