<svg xmlns="http://www.w3.org/2000/svg" xmlns:xlink="http://www.w3.org/1999/xlink" width="63.939" height="63" viewBox="0 0 63.939 63">
  <defs>
    <filter id="前面オブジェクトで型抜き_1" x="0" y="0" width="63.939" height="63" filterUnits="userSpaceOnUse">
      <feOffset dy="3" input="SourceAlpha"/>
      <feGaussianBlur stdDeviation="3" result="blur"/>
      <feFlood flood-opacity="0.161"/>
      <feComposite operator="in" in2="blur"/>
      <feComposite in="SourceGraphic"/>
    </filter>
  </defs>
  <g transform="matrix(1, 0, 0, 1, 0, 0)" filter="url(#前面オブジェクトで型抜き_1)">
    <path id="前面オブジェクトで型抜き_1-2" data-name="前面オブジェクトで型抜き 1" d="M22.969,45A23.125,23.125,0,0,1,9.531,40.749H25.752a15.28,15.28,0,0,0,7.517-1.779,14.013,14.013,0,0,0,5.266-5.337,25.472,25.472,0,0,0,3.054-12.888,29.694,29.694,0,0,0-.724-6.314,17.033,17.033,0,0,0-2.717-6.159,12.647,12.647,0,0,0-6.5-4.84,20.174,20.174,0,0,0-5.9-.828H12.234A23.458,23.458,0,0,1,31.91,1.768a22.926,22.926,0,0,1,7.3,4.822,22.406,22.406,0,0,1,4.923,7.152,22.148,22.148,0,0,1,0,17.516,22.406,22.406,0,0,1-4.923,7.152,22.926,22.926,0,0,1-7.3,4.822A23.237,23.237,0,0,1,22.969,45ZM9.319,40.6h0a22.837,22.837,0,0,1-6.778-7.8,22.132,22.132,0,0,1,0-20.587A22.837,22.837,0,0,1,9.319,4.4V40.6Zm15.088-6.473h-7.35V9.229h7.35c3.606,0,6.048,1.049,7.259,3.119s1.824,5.077,1.824,8.942a19.716,19.716,0,0,1-1.216,7.272,9.091,9.091,0,0,1-3.08,4.173A8.113,8.113,0,0,1,24.406,34.124Z" transform="translate(9 6)" fill="#fff"/>
  </g>
</svg>
