<svg xmlns="http://www.w3.org/2000/svg" xmlns:xlink="http://www.w3.org/1999/xlink" width="43.009" height="46" viewBox="0 0 43.009 46">
  <defs>
    <filter id="site-logo-primary" x="0" y="0" width="43.009" height="46" filterUnits="userSpaceOnUse">
      <feOffset dy="3" input="SourceAlpha"/>
      <feGaussianBlur stdDeviation="3" result="blur"/>
      <feFlood flood-opacity="0.161"/>
      <feComposite operator="in" in2="blur"/>
      <feComposite in="SourceGraphic"/>
    </filter>
  </defs>
  <g transform="matrix(1, 0, 0, 1, 0, 0)" filter="url(#site-logo-primary)">
    <path id="site-logo-primary-2" data-name="site-logo-primary" d="M14,35a13.979,13.979,0,0,1-7.215-2h8.848a14.3,14.3,0,0,0,8.847-2.719A14.014,14.014,0,0,1,14,35ZM4.822,31.572h0a14,14,0,0,1,0-21.143V31.572Zm10.54-3.094H10.33V13.722h5.032a8.13,8.13,0,0,1,5.682,1.98,7.153,7.153,0,0,1,2.138,5.4,7.154,7.154,0,0,1-2.138,5.4A8.13,8.13,0,0,1,15.362,28.478Zm9.645-16.127A13.96,13.96,0,0,0,15.634,9.2H6.463a14.02,14.02,0,0,1,13.76-.744,14.136,14.136,0,0,1,4.785,3.894Z" transform="translate(9 -1)" fill="#fff"/>
  </g>
</svg>
